<?xml version="1.0" standalone="no"?><!DOCTYPE svg PUBLIC "-//W3C//DTD SVG 1.1//EN" "http://www.w3.org/Graphics/SVG/1.1/DTD/svg11.dtd"><svg t="1563428466603" class="icon" viewBox="0 0 1024 1024" version="1.1" xmlns="http://www.w3.org/2000/svg" p-id="1973" width="80" height="80" xmlns:xlink="http://www.w3.org/1999/xlink"><defs><style type="text/css"></style></defs><path d="M35.986286 877.714286H0V73.142857h35.986286v804.571429z m36.022857-0.585143h-18.285714V73.142857h18.285714v803.986286z m53.686857 0h-17.700571V73.142857h17.700571v803.986286z m89.746286 0h-17.700572V73.142857h17.700572v803.986286z m89.709714 0h-35.437714V73.142857h35.437714v803.986286z m72.009143 0h-17.700572V73.142857h17.700572v803.986286z m35.986286 0h-17.700572V73.142857h17.700572v803.986286z m35.986285 0h-17.700571V73.142857h17.700571v803.986286z m89.709715 0h-35.986286V73.142857h35.986286v803.986286z m89.709714 0h-35.986286V73.142857h35.986286v803.986286z m72.009143 0h-35.986286V73.142857h35.986286v803.986286z m72.009143 0h-35.986286V73.142857h35.986286v803.986286z m53.723428 0h-35.986286V73.142857h35.986286v803.986286z m107.995429 0h-53.723429V73.142857h53.723429v803.986286z m35.986285 0h-18.285714V73.142857h18.285714v803.986286zM1024 877.714286h-35.986286V73.142857H1024v804.571429z" fill="" p-id="1974"></path></svg>